<svg xmlns="http://www.w3.org/2000/svg" width="1100" height="620" viewBox="0 0 1100 620">
<rect width="100%" height="100%" fill="white"/>
<text x="550.0" y="30" text-anchor="middle" font-family="Arial" font-size="22" font-weight="700">Average Gasoline/Diesel Adjustment</text>
<line x1="76" y1="544" x2="1062" y2="544" stroke="#333"/>
<line x1="76" y1="56" x2="76" y2="544" stroke="#333"/>
<line x1="72" y1="544.0" x2="1062" y2="544.0" stroke="#e6e6e6"/>
<text x="68" y="548.0" text-anchor="end" font-family="Arial" font-size="11" fill="#555">-1165.6</text>
<line x1="72" y1="446.4" x2="1062" y2="446.4" stroke="#e6e6e6"/>
<text x="68" y="450.4" text-anchor="end" font-family="Arial" font-size="11" fill="#555">-670.9</text>
<line x1="72" y1="348.8" x2="1062" y2="348.8" stroke="#e6e6e6"/>
<text x="68" y="352.8" text-anchor="end" font-family="Arial" font-size="11" fill="#555">-176.1</text>
<line x1="72" y1="251.2" x2="1062" y2="251.2" stroke="#e6e6e6"/>
<text x="68" y="255.2" text-anchor="end" font-family="Arial" font-size="11" fill="#555">318.6</text>
<line x1="72" y1="153.6" x2="1062" y2="153.6" stroke="#e6e6e6"/>
<text x="68" y="157.6" text-anchor="end" font-family="Arial" font-size="11" fill="#555">813.4</text>
<line x1="72" y1="56.0" x2="1062" y2="56.0" stroke="#e6e6e6"/>
<text x="68" y="60.0" text-anchor="end" font-family="Arial" font-size="11" fill="#555">1308.1</text>
<text x="569.0" y="596" text-anchor="middle" font-family="Arial" font-size="13">Date</text>
<text x="18" y="300.0" transform="rotate(-90 18 300.0)" text-anchor="middle" font-family="Arial" font-size="13">CNY per ton</text>
<line x1="76" y1="314.1" x2="1062" y2="314.1" stroke="#444"/>
<rect x="75.0" y="255.9" width="2.0" height="58.2" fill="#1b9e77" opacity="0.82"/>
<rect x="81.1" y="314.1" width="2.0" height="60.2" fill="#d95f02" opacity="0.82"/>
<rect x="84.0" y="314.1" width="2.0" height="0.0" fill="#1b9e77" opacity="0.82"/>
<rect x="87.1" y="314.1" width="2.0" height="78.4" fill="#d95f02" opacity="0.82"/>
<rect x="90.1" y="295.3" width="2.0" height="18.7" fill="#1b9e77" opacity="0.82"/>
<rect x="92.8" y="314.1" width="2.0" height="0.0" fill="#1b9e77" opacity="0.82"/>
<rect x="95.9" y="314.1" width="2.0" height="18.2" fill="#d95f02" opacity="0.82"/>
<rect x="98.9" y="294.8" width="2.0" height="19.2" fill="#1b9e77" opacity="0.82"/>
<rect x="101.8" y="314.1" width="2.0" height="15.3" fill="#d95f02" opacity="0.82"/>
<rect x="104.7" y="251.4" width="2.0" height="62.6" fill="#1b9e77" opacity="0.82"/>
<rect x="107.3" y="314.1" width="2.0" height="0.0" fill="#1b9e77" opacity="0.82"/>
<rect x="110.2" y="314.1" width="2.0" height="0.0" fill="#1b9e77" opacity="0.82"/>
<rect x="113.2" y="268.7" width="2.0" height="45.4" fill="#1b9e77" opacity="0.82"/>
<rect x="116.1" y="296.8" width="2.0" height="17.3" fill="#1b9e77" opacity="0.82"/>
<rect x="119.4" y="314.1" width="2.0" height="47.3" fill="#d95f02" opacity="0.82"/>
<rect x="122.9" y="314.1" width="2.0" height="0.0" fill="#1b9e77" opacity="0.82"/>
<rect x="125.9" y="314.1" width="2.0" height="14.8" fill="#d95f02" opacity="0.82"/>
<rect x="128.8" y="314.1" width="2.0" height="31.1" fill="#d95f02" opacity="0.82"/>
<rect x="131.7" y="283.0" width="2.0" height="31.1" fill="#1b9e77" opacity="0.82"/>
<rect x="134.5" y="302.2" width="2.0" height="11.8" fill="#1b9e77" opacity="0.82"/>
<rect x="137.2" y="314.1" width="2.0" height="0.0" fill="#1b9e77" opacity="0.82"/>
<rect x="140.4" y="314.1" width="2.0" height="24.2" fill="#d95f02" opacity="0.82"/>
<rect x="143.3" y="314.1" width="2.0" height="25.2" fill="#d95f02" opacity="0.82"/>
<rect x="147.0" y="314.1" width="2.0" height="0.0" fill="#1b9e77" opacity="0.82"/>
<rect x="150.1" y="274.1" width="2.0" height="39.9" fill="#1b9e77" opacity="0.82"/>
<rect x="152.7" y="314.1" width="2.0" height="0.0" fill="#1b9e77" opacity="0.82"/>
<rect x="155.8" y="314.1" width="2.0" height="26.1" fill="#d95f02" opacity="0.82"/>
<rect x="158.6" y="314.1" width="2.0" height="0.0" fill="#1b9e77" opacity="0.82"/>
<rect x="161.7" y="284.5" width="2.0" height="29.6" fill="#1b9e77" opacity="0.82"/>
<rect x="164.8" y="314.1" width="2.0" height="9.9" fill="#d95f02" opacity="0.82"/>
<rect x="167.6" y="300.2" width="2.0" height="13.8" fill="#1b9e77" opacity="0.82"/>
<rect x="170.9" y="314.1" width="2.0" height="0.0" fill="#1b9e77" opacity="0.82"/>
<rect x="174.0" y="282.0" width="2.0" height="32.1" fill="#1b9e77" opacity="0.82"/>
<rect x="176.6" y="314.1" width="2.0" height="0.0" fill="#1b9e77" opacity="0.82"/>
<rect x="179.7" y="314.1" width="2.0" height="47.3" fill="#d95f02" opacity="0.82"/>
<rect x="182.4" y="314.1" width="2.0" height="0.0" fill="#1b9e77" opacity="0.82"/>
<rect x="185.4" y="314.1" width="2.0" height="37.0" fill="#d95f02" opacity="0.82"/>
<rect x="188.3" y="314.1" width="2.0" height="20.2" fill="#d95f02" opacity="0.82"/>
<rect x="191.4" y="314.1" width="2.0" height="27.1" fill="#d95f02" opacity="0.82"/>
<rect x="194.0" y="314.1" width="2.0" height="19.2" fill="#d95f02" opacity="0.82"/>
<rect x="197.7" y="314.1" width="2.0" height="58.2" fill="#d95f02" opacity="0.82"/>
<rect x="200.6" y="314.1" width="2.0" height="47.3" fill="#d95f02" opacity="0.82"/>
<rect x="203.4" y="314.1" width="2.0" height="36.5" fill="#d95f02" opacity="0.82"/>
<rect x="206.3" y="314.1" width="2.0" height="0.0" fill="#1b9e77" opacity="0.82"/>
<rect x="209.2" y="314.1" width="2.0" height="56.2" fill="#d95f02" opacity="0.82"/>
<rect x="212.0" y="314.1" width="2.0" height="100.6" fill="#d95f02" opacity="0.82"/>
<rect x="215.5" y="314.1" width="2.0" height="40.4" fill="#d95f02" opacity="0.82"/>
<rect x="218.4" y="314.1" width="2.0" height="70.5" fill="#d95f02" opacity="0.82"/>
<rect x="221.2" y="257.8" width="2.0" height="56.2" fill="#1b9e77" opacity="0.82"/>
<rect x="224.9" y="238.6" width="2.0" height="75.5" fill="#1b9e77" opacity="0.82"/>
<rect x="227.4" y="314.1" width="2.0" height="0.0" fill="#1b9e77" opacity="0.82"/>
<rect x="230.4" y="314.1" width="2.0" height="46.4" fill="#d95f02" opacity="0.82"/>
<rect x="233.5" y="290.9" width="2.0" height="23.2" fill="#1b9e77" opacity="0.82"/>
<rect x="236.4" y="256.4" width="2.0" height="57.7" fill="#1b9e77" opacity="0.82"/>
<rect x="239.8" y="264.7" width="2.0" height="49.3" fill="#1b9e77" opacity="0.82"/>
<rect x="242.5" y="314.1" width="2.0" height="0.0" fill="#1b9e77" opacity="0.82"/>
<rect x="245.6" y="314.1" width="2.0" height="21.2" fill="#d95f02" opacity="0.82"/>
<rect x="248.4" y="314.1" width="2.0" height="0.0" fill="#1b9e77" opacity="0.82"/>
<rect x="251.5" y="314.1" width="2.0" height="18.2" fill="#d95f02" opacity="0.82"/>
<rect x="254.4" y="314.1" width="2.0" height="52.3" fill="#d95f02" opacity="0.82"/>
<rect x="257.2" y="314.1" width="2.0" height="42.9" fill="#d95f02" opacity="0.82"/>
<rect x="260.1" y="314.1" width="2.0" height="40.9" fill="#d95f02" opacity="0.82"/>
<rect x="263.0" y="314.1" width="2.0" height="24.2" fill="#d95f02" opacity="0.82"/>
<rect x="266.0" y="296.3" width="2.0" height="17.8" fill="#1b9e77" opacity="0.82"/>
<rect x="268.7" y="314.1" width="2.0" height="0.0" fill="#1b9e77" opacity="0.82"/>
<rect x="273.0" y="304.2" width="2.0" height="9.9" fill="#1b9e77" opacity="0.82"/>
<rect x="275.8" y="314.1" width="2.0" height="24.7" fill="#d95f02" opacity="0.82"/>
<rect x="278.7" y="314.1" width="2.0" height="16.3" fill="#d95f02" opacity="0.82"/>
<rect x="281.6" y="314.1" width="2.0" height="28.1" fill="#d95f02" opacity="0.82"/>
<rect x="290.4" y="314.1" width="2.0" height="27.1" fill="#d95f02" opacity="0.82"/>
<rect x="293.0" y="314.1" width="2.0" height="0.0" fill="#1b9e77" opacity="0.82"/>
<rect x="296.9" y="314.1" width="2.0" height="0.0" fill="#1b9e77" opacity="0.82"/>
<rect x="299.8" y="314.1" width="2.0" height="0.0" fill="#1b9e77" opacity="0.82"/>
<rect x="302.6" y="314.1" width="2.0" height="0.0" fill="#1b9e77" opacity="0.82"/>
<rect x="305.5" y="314.1" width="2.0" height="0.0" fill="#1b9e77" opacity="0.82"/>
<rect x="308.6" y="314.1" width="2.0" height="0.0" fill="#1b9e77" opacity="0.82"/>
<rect x="311.6" y="282.0" width="2.0" height="32.1" fill="#1b9e77" opacity="0.82"/>
<rect x="314.7" y="290.9" width="2.0" height="23.2" fill="#1b9e77" opacity="0.82"/>
<rect x="317.6" y="273.6" width="2.0" height="40.4" fill="#1b9e77" opacity="0.82"/>
<rect x="320.4" y="292.4" width="2.0" height="21.7" fill="#1b9e77" opacity="0.82"/>
<rect x="323.3" y="314.1" width="2.0" height="0.0" fill="#1b9e77" opacity="0.82"/>
<rect x="326.2" y="314.1" width="2.0" height="0.0" fill="#1b9e77" opacity="0.82"/>
<rect x="329.2" y="314.1" width="2.0" height="30.1" fill="#d95f02" opacity="0.82"/>
<rect x="332.1" y="314.1" width="2.0" height="42.9" fill="#d95f02" opacity="0.82"/>
<rect x="334.9" y="280.0" width="2.0" height="34.0" fill="#1b9e77" opacity="0.82"/>
<rect x="337.8" y="274.1" width="2.0" height="39.9" fill="#1b9e77" opacity="0.82"/>
<rect x="341.3" y="314.1" width="2.0" height="30.1" fill="#d95f02" opacity="0.82"/>
<rect x="343.5" y="314.1" width="2.0" height="0.0" fill="#1b9e77" opacity="0.82"/>
<rect x="347.6" y="245.5" width="2.0" height="68.6" fill="#1b9e77" opacity="0.82"/>
<rect x="350.3" y="314.1" width="2.0" height="0.0" fill="#1b9e77" opacity="0.82"/>
<rect x="353.4" y="314.1" width="2.0" height="71.0" fill="#d95f02" opacity="0.82"/>
<rect x="356.2" y="280.0" width="2.0" height="34.0" fill="#1b9e77" opacity="0.82"/>
<rect x="359.1" y="229.7" width="2.0" height="84.3" fill="#1b9e77" opacity="0.82"/>
<rect x="361.9" y="294.8" width="2.0" height="19.2" fill="#1b9e77" opacity="0.82"/>
<rect x="365.0" y="300.2" width="2.0" height="13.8" fill="#1b9e77" opacity="0.82"/>
<rect x="367.7" y="314.1" width="2.0" height="13.8" fill="#d95f02" opacity="0.82"/>
<rect x="371.8" y="304.2" width="2.0" height="9.9" fill="#1b9e77" opacity="0.82"/>
<rect x="374.4" y="314.1" width="2.0" height="0.0" fill="#1b9e77" opacity="0.82"/>
<rect x="377.5" y="314.1" width="2.0" height="16.8" fill="#d95f02" opacity="0.82"/>
<rect x="380.4" y="314.1" width="2.0" height="44.4" fill="#d95f02" opacity="0.82"/>
<rect x="383.4" y="275.6" width="2.0" height="38.5" fill="#1b9e77" opacity="0.82"/>
<rect x="386.1" y="314.1" width="2.0" height="0.0" fill="#1b9e77" opacity="0.82"/>
<rect x="389.4" y="314.1" width="2.0" height="47.8" fill="#d95f02" opacity="0.82"/>
<rect x="392.2" y="286.9" width="2.0" height="27.1" fill="#1b9e77" opacity="0.82"/>
<rect x="395.3" y="314.1" width="2.0" height="35.0" fill="#d95f02" opacity="0.82"/>
<rect x="398.1" y="314.1" width="2.0" height="48.3" fill="#d95f02" opacity="0.82"/>
<rect x="400.8" y="314.1" width="2.0" height="0.0" fill="#1b9e77" opacity="0.82"/>
<rect x="403.9" y="299.3" width="2.0" height="14.8" fill="#1b9e77" opacity="0.82"/>
<rect x="406.7" y="280.5" width="2.0" height="33.5" fill="#1b9e77" opacity="0.82"/>
<rect x="409.4" y="314.1" width="2.0" height="0.0" fill="#1b9e77" opacity="0.82"/>
<rect x="412.3" y="314.1" width="2.0" height="0.0" fill="#1b9e77" opacity="0.82"/>
<rect x="415.3" y="295.3" width="2.0" height="18.7" fill="#1b9e77" opacity="0.82"/>
<rect x="418.2" y="274.1" width="2.0" height="39.9" fill="#1b9e77" opacity="0.82"/>
<rect x="422.1" y="314.1" width="2.0" height="0.0" fill="#1b9e77" opacity="0.82"/>
<rect x="425.1" y="284.5" width="2.0" height="29.6" fill="#1b9e77" opacity="0.82"/>
<rect x="428.0" y="263.3" width="2.0" height="50.8" fill="#1b9e77" opacity="0.82"/>
<rect x="430.7" y="314.1" width="2.0" height="0.0" fill="#1b9e77" opacity="0.82"/>
<rect x="433.5" y="314.1" width="2.0" height="0.0" fill="#1b9e77" opacity="0.82"/>
<rect x="436.6" y="300.2" width="2.0" height="13.8" fill="#1b9e77" opacity="0.82"/>
<rect x="439.7" y="279.0" width="2.0" height="35.0" fill="#1b9e77" opacity="0.82"/>
<rect x="442.5" y="301.7" width="2.0" height="12.3" fill="#1b9e77" opacity="0.82"/>
<rect x="445.4" y="314.1" width="2.0" height="32.6" fill="#d95f02" opacity="0.82"/>
<rect x="449.3" y="314.1" width="2.0" height="37.0" fill="#d95f02" opacity="0.82"/>
<rect x="451.9" y="314.1" width="2.0" height="0.0" fill="#1b9e77" opacity="0.82"/>
<rect x="455.0" y="281.0" width="2.0" height="33.0" fill="#1b9e77" opacity="0.82"/>
<rect x="458.1" y="303.7" width="2.0" height="10.4" fill="#1b9e77" opacity="0.82"/>
<rect x="460.9" y="264.7" width="2.0" height="49.3" fill="#1b9e77" opacity="0.82"/>
<rect x="461.8" y="314.1" width="2.0" height="13.8" fill="#d95f02" opacity="0.82"/>
<rect x="464.0" y="281.0" width="2.0" height="33.0" fill="#1b9e77" opacity="0.82"/>
<rect x="466.9" y="263.8" width="2.0" height="50.3" fill="#1b9e77" opacity="0.82"/>
<rect x="469.7" y="314.1" width="2.0" height="25.2" fill="#d95f02" opacity="0.82"/>
<rect x="473.2" y="314.1" width="2.0" height="10.9" fill="#d95f02" opacity="0.82"/>
<rect x="476.1" y="261.8" width="2.0" height="52.3" fill="#1b9e77" opacity="0.82"/>
<rect x="478.9" y="314.1" width="2.0" height="24.2" fill="#d95f02" opacity="0.82"/>
<rect x="481.8" y="300.2" width="2.0" height="13.8" fill="#1b9e77" opacity="0.82"/>
<rect x="484.7" y="314.1" width="2.0" height="9.9" fill="#d95f02" opacity="0.82"/>
<rect x="487.5" y="279.5" width="2.0" height="34.5" fill="#1b9e77" opacity="0.82"/>
<rect x="490.4" y="285.5" width="2.0" height="28.6" fill="#1b9e77" opacity="0.82"/>
<rect x="493.0" y="267.7" width="2.0" height="46.4" fill="#1b9e77" opacity="0.82"/>
<rect x="496.9" y="282.0" width="2.0" height="32.1" fill="#1b9e77" opacity="0.82"/>
<rect x="499.8" y="314.1" width="2.0" height="73.0" fill="#d95f02" opacity="0.82"/>
<rect x="502.7" y="314.1" width="2.0" height="98.6" fill="#d95f02" opacity="0.82"/>
<rect x="505.5" y="314.1" width="2.0" height="104.6" fill="#d95f02" opacity="0.82"/>
<rect x="508.4" y="314.1" width="2.0" height="24.2" fill="#d95f02" opacity="0.82"/>
<rect x="511.2" y="314.1" width="2.0" height="71.5" fill="#d95f02" opacity="0.82"/>
<rect x="514.7" y="293.3" width="2.0" height="20.7" fill="#1b9e77" opacity="0.82"/>
<rect x="517.6" y="267.2" width="2.0" height="46.9" fill="#1b9e77" opacity="0.82"/>
<rect x="521.1" y="304.2" width="2.0" height="9.9" fill="#1b9e77" opacity="0.82"/>
<rect x="523.9" y="261.8" width="2.0" height="52.3" fill="#1b9e77" opacity="0.82"/>
<rect x="526.6" y="314.1" width="2.0" height="0.0" fill="#1b9e77" opacity="0.82"/>
<rect x="529.7" y="298.3" width="2.0" height="15.8" fill="#1b9e77" opacity="0.82"/>
<rect x="530.3" y="314.1" width="2.0" height="41.9" fill="#d95f02" opacity="0.82"/>
<rect x="532.7" y="284.0" width="2.0" height="30.1" fill="#1b9e77" opacity="0.82"/>
<rect x="535.6" y="276.6" width="2.0" height="37.5" fill="#1b9e77" opacity="0.82"/>
<rect x="539.1" y="314.1" width="2.0" height="14.8" fill="#d95f02" opacity="0.82"/>
<rect x="541.9" y="304.2" width="2.0" height="9.9" fill="#1b9e77" opacity="0.82"/>
<rect x="545.0" y="314.1" width="2.0" height="89.8" fill="#d95f02" opacity="0.82"/>
<rect x="547.9" y="314.1" width="2.0" height="23.2" fill="#d95f02" opacity="0.82"/>
<rect x="550.7" y="285.5" width="2.0" height="28.6" fill="#1b9e77" opacity="0.82"/>
<rect x="553.4" y="314.1" width="2.0" height="0.0" fill="#1b9e77" opacity="0.82"/>
<rect x="556.4" y="314.1" width="2.0" height="14.8" fill="#d95f02" opacity="0.82"/>
<rect x="559.3" y="314.1" width="2.0" height="40.9" fill="#d95f02" opacity="0.82"/>
<rect x="562.2" y="292.4" width="2.0" height="21.7" fill="#1b9e77" opacity="0.82"/>
<rect x="565.2" y="289.4" width="2.0" height="24.7" fill="#1b9e77" opacity="0.82"/>
<rect x="569.1" y="314.1" width="2.0" height="0.0" fill="#1b9e77" opacity="0.82"/>
<rect x="572.0" y="314.1" width="2.0" height="29.1" fill="#d95f02" opacity="0.82"/>
<rect x="574.9" y="293.3" width="2.0" height="20.7" fill="#1b9e77" opacity="0.82"/>
<rect x="577.7" y="300.7" width="2.0" height="13.3" fill="#1b9e77" opacity="0.82"/>
<rect x="580.6" y="303.7" width="2.0" height="10.4" fill="#1b9e77" opacity="0.82"/>
<rect x="583.2" y="314.1" width="2.0" height="0.0" fill="#1b9e77" opacity="0.82"/>
<rect x="586.3" y="268.2" width="2.0" height="45.9" fill="#1b9e77" opacity="0.82"/>
<rect x="589.2" y="314.1" width="2.0" height="0.0" fill="#1b9e77" opacity="0.82"/>
<rect x="593.7" y="314.1" width="2.0" height="81.4" fill="#d95f02" opacity="0.82"/>
<rect x="596.5" y="314.1" width="2.0" height="80.4" fill="#d95f02" opacity="0.82"/>
<rect x="599.2" y="314.1" width="2.0" height="0.0" fill="#1b9e77" opacity="0.82"/>
<rect x="602.3" y="314.1" width="2.0" height="196.3" fill="#d95f02" opacity="0.82"/>
<rect x="604.9" y="314.1" width="2.0" height="0.0" fill="#1b9e77" opacity="0.82"/>
<rect x="608.0" y="314.1" width="2.0" height="0.0" fill="#1b9e77" opacity="0.82"/>
<rect x="610.6" y="314.1" width="2.0" height="0.0" fill="#1b9e77" opacity="0.82"/>
<rect x="613.9" y="314.1" width="2.0" height="0.0" fill="#1b9e77" opacity="0.82"/>
<rect x="616.8" y="314.1" width="2.0" height="0.0" fill="#1b9e77" opacity="0.82"/>
<rect x="619.6" y="314.1" width="2.0" height="0.0" fill="#1b9e77" opacity="0.82"/>
<rect x="623.3" y="291.4" width="2.0" height="22.7" fill="#1b9e77" opacity="0.82"/>
<rect x="625.8" y="294.3" width="2.0" height="19.7" fill="#1b9e77" opacity="0.82"/>
<rect x="628.4" y="314.1" width="2.0" height="0.0" fill="#1b9e77" opacity="0.82"/>
<rect x="631.3" y="314.1" width="2.0" height="0.0" fill="#1b9e77" opacity="0.82"/>
<rect x="634.4" y="297.8" width="2.0" height="16.3" fill="#1b9e77" opacity="0.82"/>
<rect x="637.0" y="314.1" width="2.0" height="0.0" fill="#1b9e77" opacity="0.82"/>
<rect x="640.1" y="314.1" width="2.0" height="60.7" fill="#d95f02" opacity="0.82"/>
<rect x="644.2" y="314.1" width="2.0" height="0.0" fill="#1b9e77" opacity="0.82"/>
<rect x="647.0" y="299.3" width="2.0" height="14.8" fill="#1b9e77" opacity="0.82"/>
<rect x="649.9" y="314.1" width="2.0" height="30.6" fill="#d95f02" opacity="0.82"/>
<rect x="652.8" y="285.0" width="2.0" height="29.1" fill="#1b9e77" opacity="0.82"/>
<rect x="655.6" y="265.7" width="2.0" height="48.3" fill="#1b9e77" opacity="0.82"/>
<rect x="658.5" y="284.0" width="2.0" height="30.1" fill="#1b9e77" opacity="0.82"/>
<rect x="661.4" y="296.8" width="2.0" height="17.3" fill="#1b9e77" opacity="0.82"/>
<rect x="664.4" y="278.1" width="2.0" height="36.0" fill="#1b9e77" opacity="0.82"/>
<rect x="667.3" y="299.8" width="2.0" height="14.3" fill="#1b9e77" opacity="0.82"/>
<rect x="671.4" y="260.8" width="2.0" height="53.3" fill="#1b9e77" opacity="0.82"/>
<rect x="674.0" y="263.8" width="2.0" height="50.3" fill="#1b9e77" opacity="0.82"/>
<rect x="676.9" y="268.2" width="2.0" height="45.9" fill="#1b9e77" opacity="0.82"/>
<rect x="679.8" y="314.1" width="2.0" height="43.9" fill="#d95f02" opacity="0.82"/>
<rect x="682.6" y="314.1" width="2.0" height="0.0" fill="#1b9e77" opacity="0.82"/>
<rect x="685.5" y="294.8" width="2.0" height="19.2" fill="#1b9e77" opacity="0.82"/>
<rect x="688.8" y="294.3" width="2.0" height="19.7" fill="#1b9e77" opacity="0.82"/>
<rect x="691.4" y="314.1" width="2.0" height="0.0" fill="#1b9e77" opacity="0.82"/>
<rect x="694.5" y="280.0" width="2.0" height="34.0" fill="#1b9e77" opacity="0.82"/>
<rect x="698.0" y="270.7" width="2.0" height="43.4" fill="#1b9e77" opacity="0.82"/>
<rect x="700.8" y="300.7" width="2.0" height="13.3" fill="#1b9e77" opacity="0.82"/>
<rect x="703.7" y="314.1" width="2.0" height="19.2" fill="#d95f02" opacity="0.82"/>
<rect x="706.4" y="314.1" width="2.0" height="0.0" fill="#1b9e77" opacity="0.82"/>
<rect x="709.4" y="314.1" width="2.0" height="48.8" fill="#d95f02" opacity="0.82"/>
<rect x="712.3" y="286.4" width="2.0" height="27.6" fill="#1b9e77" opacity="0.82"/>
<rect x="714.7" y="296.8" width="2.0" height="17.3" fill="#1b9e77" opacity="0.82"/>
<rect x="719.0" y="247.5" width="2.0" height="66.6" fill="#1b9e77" opacity="0.82"/>
<rect x="721.7" y="255.9" width="2.0" height="58.2" fill="#1b9e77" opacity="0.82"/>
<rect x="724.4" y="314.1" width="2.0" height="0.0" fill="#1b9e77" opacity="0.82"/>
<rect x="727.4" y="314.1" width="2.0" height="18.2" fill="#d95f02" opacity="0.82"/>
<rect x="730.3" y="314.1" width="2.0" height="83.3" fill="#d95f02" opacity="0.82"/>
<rect x="733.2" y="314.1" width="2.0" height="25.2" fill="#d95f02" opacity="0.82"/>
<rect x="736.0" y="286.9" width="2.0" height="27.1" fill="#1b9e77" opacity="0.82"/>
<rect x="739.5" y="247.5" width="2.0" height="66.6" fill="#1b9e77" opacity="0.82"/>
<rect x="741.9" y="253.9" width="2.0" height="60.2" fill="#1b9e77" opacity="0.82"/>
<rect x="745.8" y="273.6" width="2.0" height="40.4" fill="#1b9e77" opacity="0.82"/>
<rect x="748.7" y="263.3" width="2.0" height="50.8" fill="#1b9e77" opacity="0.82"/>
<rect x="751.6" y="169.1" width="2.0" height="145.0" fill="#1b9e77" opacity="0.82"/>
<rect x="754.4" y="292.4" width="2.0" height="21.7" fill="#1b9e77" opacity="0.82"/>
<rect x="757.5" y="314.1" width="2.0" height="106.0" fill="#d95f02" opacity="0.82"/>
<rect x="760.1" y="274.1" width="2.0" height="39.9" fill="#1b9e77" opacity="0.82"/>
<rect x="763.8" y="259.3" width="2.0" height="54.7" fill="#1b9e77" opacity="0.82"/>
<rect x="766.7" y="236.1" width="2.0" height="77.9" fill="#1b9e77" opacity="0.82"/>
<rect x="769.8" y="238.6" width="2.0" height="75.5" fill="#1b9e77" opacity="0.82"/>
<rect x="772.6" y="314.1" width="2.0" height="62.1" fill="#d95f02" opacity="0.82"/>
<rect x="775.5" y="314.1" width="2.0" height="69.5" fill="#d95f02" opacity="0.82"/>
<rect x="778.4" y="314.1" width="2.0" height="58.2" fill="#d95f02" opacity="0.82"/>
<rect x="781.2" y="314.1" width="2.0" height="25.2" fill="#d95f02" opacity="0.82"/>
<rect x="784.1" y="314.1" width="2.0" height="39.9" fill="#d95f02" opacity="0.82"/>
<rect x="786.9" y="277.1" width="2.0" height="37.0" fill="#1b9e77" opacity="0.82"/>
<rect x="790.0" y="314.1" width="2.0" height="56.2" fill="#d95f02" opacity="0.82"/>
<rect x="793.7" y="314.1" width="2.0" height="0.0" fill="#1b9e77" opacity="0.82"/>
<rect x="796.8" y="278.5" width="2.0" height="35.5" fill="#1b9e77" opacity="0.82"/>
<rect x="799.6" y="284.0" width="2.0" height="30.1" fill="#1b9e77" opacity="0.82"/>
<rect x="802.5" y="314.1" width="2.0" height="33.5" fill="#d95f02" opacity="0.82"/>
<rect x="805.3" y="314.1" width="2.0" height="85.3" fill="#d95f02" opacity="0.82"/>
<rect x="808.2" y="314.1" width="2.0" height="92.7" fill="#d95f02" opacity="0.82"/>
<rect x="811.3" y="265.7" width="2.0" height="48.3" fill="#1b9e77" opacity="0.82"/>
<rect x="814.1" y="314.1" width="2.0" height="39.5" fill="#d95f02" opacity="0.82"/>
<rect x="817.6" y="273.6" width="2.0" height="40.4" fill="#1b9e77" opacity="0.82"/>
<rect x="820.3" y="314.1" width="2.0" height="0.0" fill="#1b9e77" opacity="0.82"/>
<rect x="823.1" y="314.1" width="2.0" height="0.0" fill="#1b9e77" opacity="0.82"/>
<rect x="826.2" y="314.1" width="2.0" height="19.2" fill="#d95f02" opacity="0.82"/>
<rect x="829.1" y="314.1" width="2.0" height="64.6" fill="#d95f02" opacity="0.82"/>
<rect x="832.5" y="208.0" width="2.0" height="106.0" fill="#1b9e77" opacity="0.82"/>
<rect x="834.8" y="314.1" width="2.0" height="31.1" fill="#d95f02" opacity="0.82"/>
<rect x="838.5" y="314.1" width="2.0" height="73.5" fill="#d95f02" opacity="0.82"/>
<rect x="841.3" y="294.8" width="2.0" height="19.2" fill="#1b9e77" opacity="0.82"/>
<rect x="844.2" y="314.1" width="2.0" height="10.4" fill="#d95f02" opacity="0.82"/>
<rect x="847.3" y="300.2" width="2.0" height="13.8" fill="#1b9e77" opacity="0.82"/>
<rect x="850.1" y="284.0" width="2.0" height="30.1" fill="#1b9e77" opacity="0.82"/>
<rect x="853.0" y="261.3" width="2.0" height="52.8" fill="#1b9e77" opacity="0.82"/>
<rect x="855.9" y="267.7" width="2.0" height="46.4" fill="#1b9e77" opacity="0.82"/>
<rect x="858.7" y="303.2" width="2.0" height="10.9" fill="#1b9e77" opacity="0.82"/>
<rect x="861.4" y="314.1" width="2.0" height="0.0" fill="#1b9e77" opacity="0.82"/>
<rect x="864.5" y="239.6" width="2.0" height="74.5" fill="#1b9e77" opacity="0.82"/>
<rect x="868.5" y="314.1" width="2.0" height="16.3" fill="#d95f02" opacity="0.82"/>
<rect x="871.4" y="314.1" width="2.0" height="13.8" fill="#d95f02" opacity="0.82"/>
<rect x="874.3" y="314.1" width="2.0" height="27.1" fill="#d95f02" opacity="0.82"/>
<rect x="877.1" y="314.1" width="2.0" height="66.1" fill="#d95f02" opacity="0.82"/>
<rect x="880.0" y="314.1" width="2.0" height="10.4" fill="#d95f02" opacity="0.82"/>
<rect x="882.9" y="314.1" width="2.0" height="80.4" fill="#d95f02" opacity="0.82"/>
<rect x="885.9" y="275.6" width="2.0" height="38.5" fill="#1b9e77" opacity="0.82"/>
<rect x="888.8" y="314.1" width="2.0" height="9.9" fill="#d95f02" opacity="0.82"/>
<rect x="891.7" y="274.6" width="2.0" height="39.5" fill="#1b9e77" opacity="0.82"/>
<rect x="895.3" y="314.1" width="2.0" height="0.0" fill="#1b9e77" opacity="0.82"/>
<rect x="898.4" y="289.9" width="2.0" height="24.2" fill="#1b9e77" opacity="0.82"/>
<rect x="901.1" y="314.1" width="2.0" height="0.0" fill="#1b9e77" opacity="0.82"/>
<rect x="904.1" y="275.6" width="2.0" height="38.5" fill="#1b9e77" opacity="0.82"/>
<rect x="907.2" y="275.1" width="2.0" height="39.0" fill="#1b9e77" opacity="0.82"/>
<rect x="909.9" y="314.1" width="2.0" height="13.8" fill="#d95f02" opacity="0.82"/>
<rect x="913.1" y="314.1" width="2.0" height="45.4" fill="#d95f02" opacity="0.82"/>
<rect x="915.8" y="314.1" width="2.0" height="0.0" fill="#1b9e77" opacity="0.82"/>
<rect x="919.1" y="314.1" width="2.0" height="36.5" fill="#d95f02" opacity="0.82"/>
<rect x="921.9" y="273.6" width="2.0" height="40.4" fill="#1b9e77" opacity="0.82"/>
<rect x="924.8" y="292.8" width="2.0" height="21.2" fill="#1b9e77" opacity="0.82"/>
<rect x="927.7" y="314.1" width="2.0" height="28.1" fill="#d95f02" opacity="0.82"/>
<rect x="930.5" y="314.1" width="2.0" height="58.7" fill="#d95f02" opacity="0.82"/>
<rect x="933.2" y="314.1" width="2.0" height="0.0" fill="#1b9e77" opacity="0.82"/>
<rect x="936.2" y="314.1" width="2.0" height="19.7" fill="#d95f02" opacity="0.82"/>
<rect x="939.3" y="314.1" width="2.0" height="70.5" fill="#d95f02" opacity="0.82"/>
<rect x="943.4" y="286.9" width="2.0" height="27.1" fill="#1b9e77" opacity="0.82"/>
<rect x="946.1" y="296.8" width="2.0" height="17.3" fill="#1b9e77" opacity="0.82"/>
<rect x="948.9" y="314.1" width="2.0" height="28.1" fill="#d95f02" opacity="0.82"/>
<rect x="951.6" y="314.1" width="2.0" height="0.0" fill="#1b9e77" opacity="0.82"/>
<rect x="954.4" y="314.1" width="2.0" height="0.0" fill="#1b9e77" opacity="0.82"/>
<rect x="957.3" y="314.1" width="2.0" height="0.0" fill="#1b9e77" opacity="0.82"/>
<rect x="960.6" y="300.2" width="2.0" height="13.8" fill="#1b9e77" opacity="0.82"/>
<rect x="963.4" y="248.5" width="2.0" height="65.6" fill="#1b9e77" opacity="0.82"/>
<rect x="967.5" y="314.1" width="2.0" height="0.0" fill="#1b9e77" opacity="0.82"/>
<rect x="970.4" y="314.1" width="2.0" height="32.6" fill="#d95f02" opacity="0.82"/>
<rect x="973.3" y="314.1" width="2.0" height="26.1" fill="#d95f02" opacity="0.82"/>
<rect x="976.1" y="314.1" width="2.0" height="54.3" fill="#d95f02" opacity="0.82"/>
<rect x="979.0" y="269.7" width="2.0" height="44.4" fill="#1b9e77" opacity="0.82"/>
<rect x="982.1" y="314.1" width="2.0" height="93.2" fill="#d95f02" opacity="0.82"/>
<rect x="984.5" y="314.1" width="2.0" height="0.0" fill="#1b9e77" opacity="0.82"/>
<rect x="988.6" y="314.1" width="2.0" height="44.4" fill="#d95f02" opacity="0.82"/>
<rect x="991.7" y="301.7" width="2.0" height="12.3" fill="#1b9e77" opacity="0.82"/>
<rect x="994.5" y="263.3" width="2.0" height="50.8" fill="#1b9e77" opacity="0.82"/>
<rect x="997.4" y="268.7" width="2.0" height="45.4" fill="#1b9e77" opacity="0.82"/>
<rect x="1000.3" y="314.1" width="2.0" height="25.2" fill="#d95f02" opacity="0.82"/>
<rect x="1002.9" y="314.1" width="2.0" height="0.0" fill="#1b9e77" opacity="0.82"/>
<rect x="1005.8" y="314.1" width="2.0" height="0.0" fill="#1b9e77" opacity="0.82"/>
<rect x="1008.8" y="314.1" width="2.0" height="35.0" fill="#d95f02" opacity="0.82"/>
<rect x="1011.5" y="314.1" width="2.0" height="0.0" fill="#1b9e77" opacity="0.82"/>
<rect x="1014.4" y="314.1" width="2.0" height="0.0" fill="#1b9e77" opacity="0.82"/>
<rect x="1018.7" y="314.1" width="2.0" height="14.3" fill="#d95f02" opacity="0.82"/>
<rect x="1021.5" y="314.1" width="2.0" height="51.3" fill="#d95f02" opacity="0.82"/>
<rect x="1024.4" y="289.9" width="2.0" height="24.2" fill="#1b9e77" opacity="0.82"/>
<rect x="1027.3" y="314.1" width="2.0" height="13.3" fill="#d95f02" opacity="0.82"/>
<rect x="1030.1" y="314.1" width="2.0" height="10.9" fill="#d95f02" opacity="0.82"/>
<rect x="1033.0" y="314.1" width="2.0" height="33.0" fill="#d95f02" opacity="0.82"/>
<rect x="1035.8" y="314.1" width="2.0" height="0.0" fill="#1b9e77" opacity="0.82"/>
<rect x="1038.9" y="297.3" width="2.0" height="16.8" fill="#1b9e77" opacity="0.82"/>
<rect x="1041.8" y="274.6" width="2.0" height="39.5" fill="#1b9e77" opacity="0.82"/>
<rect x="1046.1" y="280.0" width="2.0" height="34.0" fill="#1b9e77" opacity="0.82"/>
<rect x="1048.7" y="179.4" width="2.0" height="134.6" fill="#1b9e77" opacity="0.82"/>
<rect x="1051.6" y="89.7" width="2.0" height="224.4" fill="#1b9e77" opacity="0.82"/>
<rect x="1054.7" y="233.2" width="2.0" height="80.9" fill="#1b9e77" opacity="0.82"/>
<rect x="1057.5" y="314.1" width="2.0" height="107.0" fill="#d95f02" opacity="0.82"/>
<rect x="1061.0" y="251.9" width="2.0" height="62.1" fill="#1b9e77" opacity="0.82"/>
<rect x="76" y="565" width="16" height="4" fill="#1b9e77"/>
<text x="98" y="570" font-family="Arial" font-size="12" fill="#333">Up adjustment</text>
<rect x="256" y="565" width="16" height="4" fill="#d95f02"/>
<text x="278" y="570" font-family="Arial" font-size="12" fill="#333">Down adjustment</text>
</svg>