<svg xmlns="http://www.w3.org/2000/svg" width="1100" height="620" viewBox="0 0 1100 620">
<rect width="100%" height="100%" fill="white"/>
<text x="550.0" y="30" text-anchor="middle" font-family="Arial" font-size="22" font-weight="700">Loss Components with Joint Normalization</text>
<line x1="78" y1="542" x2="1056" y2="542" stroke="#333"/>
<line x1="78" y1="58" x2="78" y2="542" stroke="#333"/>
<line x1="74" y1="542.0" x2="1056" y2="542.0" stroke="#e7e7e7"/>
<text x="70" y="546.0" text-anchor="end" font-family="Arial" font-size="11" fill="#555">-5.1</text>
<line x1="74" y1="445.2" x2="1056" y2="445.2" stroke="#e7e7e7"/>
<text x="70" y="449.2" text-anchor="end" font-family="Arial" font-size="11" fill="#555">9.8</text>
<line x1="74" y1="348.4" x2="1056" y2="348.4" stroke="#e7e7e7"/>
<text x="70" y="352.4" text-anchor="end" font-family="Arial" font-size="11" fill="#555">24.7</text>
<line x1="74" y1="251.6" x2="1056" y2="251.6" stroke="#e7e7e7"/>
<text x="70" y="255.6" text-anchor="end" font-family="Arial" font-size="11" fill="#555">39.6</text>
<line x1="74" y1="154.8" x2="1056" y2="154.8" stroke="#e7e7e7"/>
<text x="70" y="158.8" text-anchor="end" font-family="Arial" font-size="11" fill="#555">54.5</text>
<line x1="74" y1="58.0" x2="1056" y2="58.0" stroke="#e7e7e7"/>
<text x="70" y="62.0" text-anchor="end" font-family="Arial" font-size="11" fill="#555">69.4</text>
<text x="567.0" y="596" text-anchor="middle" font-family="Arial" font-size="13">Strategy</text>
<text x="18" y="300.0" transform="rotate(-90 18 300.0)" text-anchor="middle" font-family="Arial" font-size="13">Component loss</text>
<rect x="113.5" y="489.9" width="92.0" height="18.7" fill="#4c78a8" opacity="0.86"/>
<rect x="113.5" y="485.9" width="92.0" height="4.0" fill="#f58518" opacity="0.86"/>
<rect x="113.5" y="466.2" width="92.0" height="19.6" fill="#e45756" opacity="0.86"/>
<rect x="113.5" y="405.5" width="92.0" height="60.7" fill="#72b7b2" opacity="0.86"/>
<rect x="113.5" y="387.5" width="92.0" height="18.0" fill="#54a24b" opacity="0.86"/>
<text x="159.5" y="560" text-anchor="middle" font-family="Arial" font-size="10">S5_grid_best_segmented</text>
<rect x="276.5" y="480.5" width="92.0" height="28.1" fill="#4c78a8" opacity="0.86"/>
<rect x="276.5" y="480.5" width="92.0" height="0.0" fill="#f58518" opacity="0.86"/>
<rect x="276.5" y="451.2" width="92.0" height="29.3" fill="#e45756" opacity="0.86"/>
<rect x="276.5" y="363.9" width="92.0" height="87.2" fill="#72b7b2" opacity="0.86"/>
<rect x="276.5" y="363.9" width="92.0" height="0.0" fill="#54a24b" opacity="0.86"/>
<text x="322.5" y="560" text-anchor="middle" font-family="Arial" font-size="10">S1_full_pass</text>
<rect x="439.5" y="480.5" width="92.0" height="28.1" fill="#4c78a8" opacity="0.86"/>
<rect x="439.5" y="480.5" width="92.0" height="0.0" fill="#f58518" opacity="0.86"/>
<rect x="439.5" y="451.2" width="92.0" height="29.3" fill="#e45756" opacity="0.86"/>
<rect x="439.5" y="363.9" width="92.0" height="87.2" fill="#72b7b2" opacity="0.86"/>
<rect x="439.5" y="363.9" width="92.0" height="0.0" fill="#54a24b" opacity="0.86"/>
<text x="485.5" y="560" text-anchor="middle" font-family="Arial" font-size="10">S4_grid_best_fixed_lambda</text>
<rect x="602.5" y="488.8" width="92.0" height="19.8" fill="#4c78a8" opacity="0.86"/>
<rect x="602.5" y="484.2" width="92.0" height="4.6" fill="#f58518" opacity="0.86"/>
<rect x="602.5" y="463.4" width="92.0" height="20.8" fill="#e45756" opacity="0.86"/>
<rect x="602.5" y="396.6" width="92.0" height="66.8" fill="#72b7b2" opacity="0.86"/>
<rect x="602.5" y="352.9" width="92.0" height="43.7" fill="#54a24b" opacity="0.86"/>
<text x="648.5" y="560" text-anchor="middle" font-family="Arial" font-size="10">S3_segmented_smoothing</text>
<rect x="765.5" y="475.2" width="92.0" height="33.4" fill="#4c78a8" opacity="0.86"/>
<rect x="765.5" y="439.7" width="92.0" height="35.5" fill="#f58518" opacity="0.86"/>
<rect x="765.5" y="405.1" width="92.0" height="34.6" fill="#e45756" opacity="0.86"/>
<rect x="765.5" y="268.6" width="92.0" height="136.5" fill="#72b7b2" opacity="0.86"/>
<rect x="765.5" y="188.3" width="92.0" height="80.3" fill="#54a24b" opacity="0.86"/>
<text x="811.5" y="560" text-anchor="middle" font-family="Arial" font-size="10">S0_current</text>
<rect x="928.5" y="495.0" width="92.0" height="13.6" fill="#4c78a8" opacity="0.86"/>
<rect x="928.5" y="483.5" width="92.0" height="11.5" fill="#f58518" opacity="0.86"/>
<rect x="928.5" y="469.3" width="92.0" height="14.2" fill="#e45756" opacity="0.86"/>
<rect x="928.5" y="426.8" width="92.0" height="42.5" fill="#72b7b2" opacity="0.86"/>
<rect x="928.5" y="91.4" width="92.0" height="335.5" fill="#54a24b" opacity="0.86"/>
<text x="974.5" y="560" text-anchor="middle" font-family="Arial" font-size="10">S2_fixed_70</text>
<rect x="78" y="561" width="18" height="5" fill="#4c78a8"/>
<text x="102" y="566" font-family="Arial" font-size="12" fill="#333">Consumer</text>
<rect x="223" y="561" width="18" height="5" fill="#f58518"/>
<text x="247" y="566" font-family="Arial" font-size="12" fill="#333">Refinery</text>
<rect x="368" y="561" width="18" height="5" fill="#e45756"/>
<text x="392" y="566" font-family="Arial" font-size="12" fill="#333">CPI</text>
<rect x="513" y="561" width="18" height="5" fill="#72b7b2"/>
<text x="537" y="566" font-family="Arial" font-size="12" fill="#333">Volatility</text>
<rect x="658" y="561" width="18" height="5" fill="#54a24b"/>
<text x="682" y="566" font-family="Arial" font-size="12" fill="#333">Security</text>
</svg>